<svg width="159" height="26" viewBox="0 0 159 26" fill="none" xmlns="http://www.w3.org/2000/svg">
<path d="M16.8864 9.15909C16.697 8.54545 16.4356 7.99621 16.1023 7.51136C15.7765 7.01894 15.3826 6.59848 14.9205 6.25C14.4659 5.90151 13.9432 5.64015 13.3523 5.46591C12.7614 5.28409 12.1174 5.19318 11.4205 5.19318C10.1705 5.19318 9.05682 5.50758 8.07955 6.13636C7.10227 6.76515 6.33333 7.68939 5.77273 8.90909C5.2197 10.1212 4.94318 11.5985 4.94318 13.3409C4.94318 15.0985 5.2197 16.5871 5.77273 17.8068C6.32576 19.0265 7.0947 19.9545 8.07955 20.5909C9.06439 21.2197 10.2083 21.5341 11.5114 21.5341C12.6932 21.5341 13.7159 21.3068 14.5795 20.8523C15.4508 20.3977 16.1212 19.7538 16.5909 18.9205C17.0606 18.0795 17.2955 17.0947 17.2955 15.9659L18.25 16.1136H11.9318V12.8182H21.375V15.6136C21.375 17.6061 20.9508 19.3295 20.1023 20.7841C19.2538 22.2386 18.0871 23.3598 16.6023 24.1477C15.1174 24.928 13.4129 25.3182 11.4886 25.3182C9.3447 25.3182 7.46212 24.8371 5.84091 23.875C4.22727 22.9053 2.96591 21.5303 2.05682 19.75C1.1553 17.9621 0.704545 15.8409 0.704545 13.3864C0.704545 11.5076 0.969697 9.82954 1.5 8.35227C2.03788 6.875 2.78788 5.62121 3.75 4.59091C4.71212 3.55303 5.84091 2.76515 7.13636 2.22727C8.43182 1.68182 9.84091 1.40909 11.3636 1.40909C12.6515 1.40909 13.8523 1.59848 14.9659 1.97727C16.0795 2.34848 17.0682 2.87879 17.9318 3.56818C18.803 4.25758 19.5189 5.07576 20.0795 6.02273C20.6402 6.9697 21.0076 8.01515 21.1818 9.15909H16.8864ZM26.3636 25V7.54545H30.4773V25H26.3636ZM28.4318 5.06818C27.7803 5.06818 27.2197 4.85227 26.75 4.42045C26.2803 3.98106 26.0455 3.45454 26.0455 2.84091C26.0455 2.2197 26.2803 1.69318 26.75 1.26136C27.2197 0.821969 27.7803 0.602272 28.4318 0.602272C29.0909 0.602272 29.6515 0.821969 30.1136 1.26136C30.5833 1.69318 30.8182 2.2197 30.8182 2.84091C30.8182 3.45454 30.5833 3.98106 30.1136 4.42045C29.6515 4.85227 29.0909 5.06818 28.4318 5.06818ZM43.4233 7.54545V10.7273H33.3892V7.54545H43.4233ZM35.8665 3.36364H39.9801V19.75C39.9801 20.303 40.0634 20.7273 40.2301 21.0227C40.4044 21.3106 40.6316 21.5076 40.9119 21.6136C41.1922 21.7197 41.5028 21.7727 41.8438 21.7727C42.1013 21.7727 42.3362 21.7538 42.5483 21.7159C42.768 21.678 42.9347 21.6439 43.0483 21.6136L43.7415 24.8295C43.5218 24.9053 43.2074 24.9886 42.7983 25.0795C42.3968 25.1705 41.9044 25.2235 41.321 25.2386C40.2907 25.2689 39.3627 25.1136 38.5369 24.7727C37.7112 24.4242 37.0559 23.8864 36.571 23.1591C36.0938 22.4318 35.8589 21.5227 35.8665 20.4318V3.36364ZM67.6307 8.125C67.5246 7.13258 67.0777 6.35985 66.2898 5.80682C65.5095 5.25379 64.4943 4.97727 63.2443 4.97727C62.3655 4.97727 61.6117 5.10985 60.983 5.375C60.3542 5.64015 59.8731 6 59.5398 6.45454C59.2064 6.90909 59.036 7.42803 59.0284 8.01136C59.0284 8.49621 59.1383 8.91667 59.358 9.27273C59.5852 9.62879 59.892 9.93182 60.2784 10.1818C60.6648 10.4242 61.0928 10.6288 61.5625 10.7955C62.0322 10.9621 62.5057 11.1023 62.983 11.2159L65.1648 11.7614C66.0436 11.9659 66.8883 12.2424 67.6989 12.5909C68.517 12.9394 69.2481 13.3788 69.892 13.9091C70.5436 14.4394 71.0587 15.0795 71.4375 15.8295C71.8163 16.5795 72.0057 17.4583 72.0057 18.4659C72.0057 19.8295 71.6572 21.0303 70.9602 22.0682C70.2633 23.0985 69.2557 23.9053 67.9375 24.4886C66.6269 25.0644 65.0398 25.3523 63.1761 25.3523C61.3655 25.3523 59.7936 25.072 58.4602 24.5114C57.1345 23.9508 56.0966 23.1326 55.3466 22.0568C54.6042 20.9811 54.2027 19.6705 54.142 18.125H58.2898C58.3504 18.9356 58.6004 19.6098 59.0398 20.1477C59.4792 20.6856 60.0511 21.0871 60.7557 21.3523C61.4678 21.6174 62.2633 21.75 63.142 21.75C64.0587 21.75 64.8617 21.6136 65.5511 21.3409C66.2481 21.0606 66.7936 20.6742 67.1875 20.1818C67.5814 19.6818 67.7822 19.0985 67.7898 18.4318C67.7822 17.8258 67.6042 17.3258 67.2557 16.9318C66.9072 16.5303 66.4186 16.197 65.7898 15.9318C65.1686 15.6591 64.4413 15.4167 63.608 15.2045L60.9602 14.5227C59.0436 14.0303 57.5284 13.2841 56.4148 12.2841C55.3087 11.2765 54.7557 9.93939 54.7557 8.27273C54.7557 6.90151 55.1269 5.70076 55.8693 4.67045C56.6193 3.64015 57.6383 2.84091 58.9261 2.27273C60.214 1.69697 61.6723 1.40909 63.3011 1.40909C64.9527 1.40909 66.3996 1.69697 67.642 2.27273C68.892 2.84091 69.8731 3.63258 70.5852 4.64773C71.2973 5.6553 71.6648 6.81439 71.6875 8.125H67.6307ZM83.3097 25.3409C81.5597 25.3409 80.0483 24.9773 78.7756 24.25C77.5104 23.5152 76.5369 22.4773 75.8551 21.1364C75.1733 19.7879 74.8324 18.2008 74.8324 16.375C74.8324 14.5795 75.1733 13.0038 75.8551 11.6477C76.5445 10.2841 77.5066 9.22348 78.7415 8.46591C79.9763 7.70076 81.4271 7.31818 83.0938 7.31818C84.1695 7.31818 85.1847 7.49242 86.1392 7.84091C87.1013 8.18182 87.9498 8.71212 88.6847 9.43182C89.4271 10.1515 90.0104 11.0682 90.4347 12.1818C90.8589 13.2879 91.071 14.6061 91.071 16.1364V17.3977H76.7642V14.625H87.1278C87.1203 13.8371 86.9498 13.1364 86.6165 12.5227C86.2831 11.9015 85.8172 11.4129 85.2188 11.0568C84.6278 10.7008 83.9384 10.5227 83.1506 10.5227C82.3097 10.5227 81.571 10.7273 80.9347 11.1364C80.2983 11.5379 79.8021 12.0682 79.446 12.7273C79.0975 13.3788 78.9195 14.0947 78.9119 14.875V17.2955C78.9119 18.3106 79.0975 19.1818 79.4688 19.9091C79.84 20.6288 80.3589 21.1818 81.0256 21.5682C81.6922 21.947 82.4725 22.1364 83.3665 22.1364C83.965 22.1364 84.5066 22.053 84.9915 21.8864C85.4763 21.7121 85.8968 21.4583 86.2528 21.125C86.6089 20.7917 86.8778 20.3788 87.0597 19.8864L90.9006 20.3182C90.6581 21.3333 90.196 22.2197 89.5142 22.9773C88.84 23.7273 87.9763 24.3106 86.9233 24.7273C85.8703 25.1364 84.6657 25.3409 83.3097 25.3409ZM99.5739 25.3523C98.4678 25.3523 97.4716 25.1553 96.5852 24.7614C95.7064 24.3598 95.0095 23.7689 94.4943 22.9886C93.9867 22.2083 93.733 21.2462 93.733 20.1023C93.733 19.1174 93.9148 18.303 94.2784 17.6591C94.642 17.0152 95.1383 16.5 95.767 16.1136C96.3958 15.7273 97.1042 15.4356 97.892 15.2386C98.6875 15.0341 99.5095 14.8864 100.358 14.7955C101.381 14.6894 102.21 14.5947 102.847 14.5114C103.483 14.4205 103.945 14.2841 104.233 14.1023C104.528 13.9129 104.676 13.6212 104.676 13.2273V13.1591C104.676 12.303 104.422 11.6402 103.915 11.1705C103.407 10.7008 102.676 10.4659 101.722 10.4659C100.714 10.4659 99.9148 10.6856 99.3239 11.125C98.7405 11.5644 98.3466 12.0833 98.142 12.6818L94.3011 12.1364C94.6042 11.0758 95.1042 10.1894 95.8011 9.47727C96.4981 8.75757 97.3504 8.2197 98.358 7.86364C99.3655 7.5 100.479 7.31818 101.699 7.31818C102.54 7.31818 103.377 7.41667 104.21 7.61364C105.044 7.81061 105.805 8.13636 106.494 8.59091C107.184 9.03788 107.737 9.64773 108.153 10.4205C108.578 11.1932 108.79 12.1591 108.79 13.3182V25H104.835V22.6023H104.699C104.449 23.0871 104.097 23.5417 103.642 23.9659C103.195 24.3826 102.631 24.7197 101.949 24.9773C101.275 25.2273 100.483 25.3523 99.5739 25.3523ZM100.642 22.3295C101.468 22.3295 102.184 22.1667 102.79 21.8409C103.396 21.5076 103.862 21.0682 104.188 20.5227C104.521 19.9773 104.688 19.3826 104.688 18.7386V16.6818C104.559 16.7879 104.339 16.8864 104.028 16.9773C103.725 17.0682 103.384 17.1477 103.006 17.2159C102.627 17.2841 102.252 17.3447 101.881 17.3977C101.509 17.4508 101.188 17.4962 100.915 17.5341C100.301 17.6174 99.7519 17.7538 99.267 17.9432C98.7822 18.1326 98.3996 18.3977 98.1193 18.7386C97.839 19.072 97.6989 19.5038 97.6989 20.0341C97.6989 20.7917 97.9754 21.3636 98.5284 21.75C99.0814 22.1364 99.786 22.3295 100.642 22.3295ZM112.926 25V7.54545H116.915V10.4545H117.097C117.415 9.44697 117.96 8.67045 118.733 8.125C119.513 7.57197 120.403 7.29545 121.403 7.29545C121.631 7.29545 121.884 7.30682 122.165 7.32954C122.453 7.3447 122.691 7.37121 122.881 7.40909V11.1932C122.706 11.1326 122.43 11.0795 122.051 11.0341C121.68 10.9811 121.32 10.9545 120.972 10.9545C120.222 10.9545 119.547 11.1174 118.949 11.4432C118.358 11.7614 117.892 12.2045 117.551 12.7727C117.21 13.3409 117.04 13.9962 117.04 14.7386V25H112.926ZM132.509 25.3409C130.766 25.3409 129.27 24.9583 128.02 24.1932C126.777 23.428 125.819 22.3712 125.145 21.0227C124.478 19.6667 124.145 18.1061 124.145 16.3409C124.145 14.5682 124.486 13.0038 125.168 11.6477C125.849 10.2841 126.812 9.22348 128.054 8.46591C129.304 7.70076 130.781 7.31818 132.486 7.31818C133.902 7.31818 135.156 7.57955 136.247 8.10227C137.346 8.61742 138.221 9.34848 138.872 10.2955C139.524 11.2348 139.895 12.3333 139.986 13.5909H136.054C135.895 12.75 135.516 12.0492 134.918 11.4886C134.327 10.9205 133.535 10.6364 132.543 10.6364C131.702 10.6364 130.963 10.8636 130.327 11.3182C129.69 11.7652 129.194 12.4091 128.838 13.25C128.49 14.0909 128.315 15.0985 128.315 16.2727C128.315 17.4621 128.49 18.4848 128.838 19.3409C129.187 20.1894 129.675 20.8447 130.304 21.3068C130.94 21.7614 131.687 21.9886 132.543 21.9886C133.149 21.9886 133.69 21.875 134.168 21.6477C134.652 21.4129 135.058 21.0758 135.384 20.6364C135.709 20.197 135.933 19.6629 136.054 19.0341H139.986C139.887 20.2689 139.524 21.3636 138.895 22.3182C138.266 23.2652 137.41 24.0076 136.327 24.5455C135.243 25.0758 133.971 25.3409 132.509 25.3409ZM147.477 14.7727V25H143.364V1.72727H147.386V10.5114H147.591C148 9.52651 148.633 8.75 149.489 8.18182C150.352 7.60606 151.451 7.31818 152.784 7.31818C153.996 7.31818 155.053 7.57197 155.955 8.07954C156.856 8.58712 157.553 9.32954 158.045 10.3068C158.545 11.2841 158.795 12.4773 158.795 13.8864V25H154.682V14.5227C154.682 13.3485 154.379 12.4356 153.773 11.7841C153.174 11.125 152.333 10.7955 151.25 10.7955C150.523 10.7955 149.871 10.9545 149.295 11.2727C148.727 11.5833 148.28 12.0341 147.955 12.625C147.636 13.2159 147.477 13.9318 147.477 14.7727Z" fill="white"/>
</svg>
